<svg xmlns="http://www.w3.org/2000/svg" width="160" height="83" viewBox="0 0 160 83"><rect width="100%" height="100%" fill="#DDDDDD"/><path fill="#999999" d="M39.88 48.23h3.25v2.31h-10v-2.31h3.66V37.69q0-.63.04-1.29l-2.6 2.18q-.22.17-.44.22-.22.04-.41 0-.2-.04-.35-.13-.15-.09-.22-.21l-.98-1.33 5.51-4.69h2.54v15.79Zm16.7-15.76-5.36 6.56-.63.77q.53-.26 1.14-.4.6-.15 1.3-.15 1.03 0 2 .34.96.34 1.7 1.02.74.68 1.19 1.69.45 1.01.45 2.36 0 1.27-.46 2.37-.47 1.11-1.3 1.93-.84.83-2.02 1.3-1.18.48-2.61.48-1.45 0-2.6-.46-1.15-.47-1.96-1.3-.81-.83-1.24-2-.44-1.17-.44-2.59 0-1.28.52-2.62t1.61-2.79l4.31-5.79q.23-.3.66-.51.43-.21.99-.21h2.75Zm-4.66 15.74q.74 0 1.36-.25.61-.25 1.06-.7.44-.45.69-1.05.25-.61.25-1.32 0-.78-.24-1.39-.23-.62-.67-1.05-.44-.44-1.05-.66-.61-.22-1.35-.22-.74 0-1.34.25-.6.25-1.02.69-.43.44-.67 1.05-.23.6-.23 1.3 0 .75.2 1.37.21.62.62 1.06.4.44 1 .68.6.24 1.39.24Zm21.15-6.71q0 2.36-.51 4.11-.5 1.74-1.4 2.88-.89 1.14-2.11 1.69-1.22.56-2.63.56t-2.62-.56q-1.21-.55-2.09-1.69-.89-1.14-1.39-2.88-.5-1.75-.5-4.11 0-2.37.5-4.11.5-1.74 1.39-2.88.88-1.13 2.09-1.69t2.62-.56q1.41 0 2.63.56t2.11 1.69q.9 1.14 1.4 2.88.51 1.74.51 4.11Zm-3.19 0q0-1.96-.29-3.25-.28-1.29-.76-2.05-.49-.76-1.11-1.07-.63-.3-1.3-.3-.66 0-1.28.3-.62.31-1.1 1.07-.47.76-.75 2.05-.28 1.29-.28 3.25t.28 3.25q.28 1.29.75 2.05.48.76 1.1 1.07.62.31 1.28.31.67 0 1.3-.31.62-.31 1.11-1.07.48-.76.76-2.05.29-1.29.29-3.25Zm23.04 4.9-1.64 1.61-4.24-4.23-4.27 4.26-1.64-1.61 4.28-4.29-4.08-4.08 1.63-1.62 4.07 4.07 4.05-4.05 1.65 1.63-4.06 4.06 4.25 4.25Zm14.67 1.93q.77 0 1.34-.22.58-.22.97-.61t.59-.92q.2-.54.2-1.17 0-1.48-.82-2.25-.83-.76-2.28-.76-1.45 0-2.27.76-.83.77-.83 2.25 0 .63.2 1.17.2.53.6.92.39.39.97.61.57.22 1.33.22Zm0-13.74q-.68 0-1.18.21-.5.21-.83.57-.34.36-.49.82-.16.46-.16.97 0 .54.13 1.05.13.5.45.9.31.39.82.63t1.26.24q.75 0 1.27-.24.51-.24.82-.63.31-.4.45-.9.13-.51.13-1.05 0-.51-.17-.97-.16-.46-.48-.82-.33-.36-.83-.57-.5-.21-1.19-.21Zm3.05 6.52q1.65.54 2.44 1.65.79 1.1.79 2.7 0 1.2-.46 2.18-.45.97-1.28 1.66-.82.69-1.98 1.06-1.16.38-2.56.38-1.4 0-2.55-.38-1.16-.37-1.98-1.06-.83-.69-1.28-1.66-.46-.98-.46-2.18 0-1.6.79-2.7.78-1.11 2.43-1.65-1.31-.55-1.96-1.56-.66-1.01-.66-2.44 0-1.02.42-1.91.42-.89 1.17-1.54.75-.66 1.79-1.03t2.29-.37q1.25 0 2.3.37 1.04.37 1.79 1.03.75.65 1.17 1.54.42.89.42 1.91 0 1.43-.66 2.44-.65 1.01-1.97 1.56Zm7.18-3.32-1.63-.29q.19-1.3.73-2.28.54-.98 1.34-1.64.81-.65 1.85-.98 1.05-.34 2.25-.34 1.25 0 2.25.36 1.01.36 1.72.99t1.1 1.48q.38.85.38 1.84 0 .86-.2 1.52-.19.65-.55 1.14-.37.49-.9.82-.54.34-1.22.57 1.63.51 2.43 1.56.8 1.05.8 2.64 0 1.35-.5 2.38-.5 1.04-1.35 1.75-.85.7-1.97 1.07-1.12.36-2.37.36-1.36 0-2.37-.31-1.02-.32-1.77-.93-.75-.61-1.27-1.5-.53-.89-.9-2.05l1.36-.56q.54-.23 1.01-.12.47.11.68.51.22.43.49.86.27.42.65.76.37.33.88.53.5.21 1.2.21.79 0 1.38-.26.59-.25.98-.67.39-.41.59-.91.19-.51.19-1.02 0-.65-.14-1.18-.13-.54-.57-.91-.44-.38-1.26-.59-.82-.21-2.19-.21v-2.2q1.14-.01 1.89-.21.75-.2 1.19-.56.44-.36.62-.86.17-.5.17-1.1 0-1.27-.71-1.93-.71-.67-1.9-.67-.55 0-1.01.16-.46.16-.83.44-.37.28-.62.65-.25.38-.38.83-.21.57-.55.76-.35.19-.97.09Z"/></svg>