<svg xmlns="http://www.w3.org/2000/svg" width="20" height="20" viewBox="0 0 20 20"><rect width="100%" height="100%" fill="#FFFFFF"/><path fill="#FF0000" d="M8.29 7.115H5.4v1.92h2.44v.97H5.4v2.65H4.18v-6.51h4.11v.97Zm1.84 2.29q0 .53.14.96.15.42.42.72.26.29.64.45.38.16.86.16t.86-.16q.38-.16.64-.45.27-.3.41-.72.15-.43.15-.96 0-.54-.15-.96-.14-.43-.41-.73-.26-.29-.64-.45-.38-.16-.86-.16t-.86.16q-.38.16-.64.45-.27.3-.42.73-.14.42-.14.96Zm4.04 2.72 1.65 1.8h-1q-.21 0-.39-.05-.17-.06-.31-.22l-.96-1.05q-.23.06-.47.09-.24.03-.5.03-.74 0-1.34-.25-.61-.25-1.05-.69-.43-.45-.67-1.06-.24-.61-.24-1.32 0-.72.24-1.33.24-.61.67-1.05.44-.45 1.05-.7.6-.25 1.34-.25.5 0 .93.12.44.11.8.32.37.21.66.51.29.3.49.67.2.37.31.8.11.43.11.91 0 .43-.09.83-.09.4-.26.75-.17.34-.42.63-.24.29-.55.51Z"/></svg>