<svg xmlns="http://www.w3.org/2000/svg" width="645" height="245" viewBox="0 0 645 245"><rect width="100%" height="100%" fill="#FFFFFF"/><path fill="#000000" d="M140.095 139.37h-9.12V98.08h9.12v41.29Zm14.34 0h-8.32V98.08h8.32v41.29Zm27.97 0h-9.12V98.08h17.88v6.2h-8.76v10.39h7.54v6.37h-7.54v18.33Zm21.61-5.2q.6 0 1.24-.42.63-.41 1.03-.98v-8.07q-1.99 1-3.28 2.8-1.28 1.81-1.28 3.53 0 1.44.65 2.29.65.85 1.64.85Zm-3.01 5.72q-3.14-.05-4.99-2.23-1.86-2.17-1.86-4.96 0-1.45.36-2.71.36-1.25.87-2.17.51-.93 1.44-1.8.92-.87 1.66-1.4.75-.54 1.98-1.15 1.24-.61 1.98-.91.75-.3 2.03-.78 1.29-.49 1.81-.71v-2.92q0-1.24-.37-1.91-.38-.68-1.37-.68-1.7 0-1.8 2.34l-.2 2.17-7.77-.3q0-.07.03-.5.02-.42.02-.47.38-4.83 3-7.12 2.63-2.29 7.51-2.29 4.36 0 6.64 2.41 2.28 2.42 2.28 6.45v13.72q0 2.84.52 7.4h-7.4q-.64-3.59-.69-4.18-.6 2.01-2.04 3.36-1.45 1.34-3.64 1.34Zm26.45-.17q-1.37-.05-2.48-.39-1.11-.33-1.88-.86-.77-.52-1.35-1.32-.57-.79-.91-1.64-.33-.85-.53-1.97t-.28-2.15q-.07-1.03-.07-2.33v-13.75h-2.81v-5.42h2.81v-8.94h8.39v8.94h4.24v5.42h-4.24v15.24q0 2.32 2.67 2.4.32.02.73 0 .41-.03.67-.07.27-.03.53-.08t.28-.05v6.55q-2.66.44-4.93.44-.42 0-.84-.02Zm18.02 0q-1.36-.05-2.47-.39-1.11-.33-1.88-.86-.77-.52-1.35-1.32-.57-.79-.91-1.64-.33-.85-.53-1.97t-.28-2.15q-.07-1.03-.07-2.33v-13.75h-2.81v-5.42h2.81v-8.94h8.39v8.94h4.23v5.42h-4.23v15.24q0 2.32 2.67 2.4.32.02.73 0 .41-.03.67-.07.26-.03.53-.08.26-.05.28-.05v6.55q-2.66.44-4.93.44-.42 0-.85-.02Zm26.94-2.32q-2.75 2.49-7.59 2.49-4.83 0-7.54-2.49-2.72-2.49-2.72-7.19v-11.14q0-4.73 2.72-7.2 2.71-2.48 7.54-2.48 4.84 0 7.59 2.49t2.75 7.19v11.14q0 4.7-2.75 7.19Zm-7.59-3.09q1.2 0 1.66-.88.46-.88.46-2.65V118.5q0-1.79-.46-2.68-.46-.88-1.66-.88-1.14 0-1.6.91-.46.91-.46 2.65v12.28q0 1.72.46 2.63.46.9 1.6.9Zm38.94-1.12q.58.3 1.41.3.82 0 1.42-.28.59-.29.92-.73.32-.43.51-1.13.18-.7.23-1.31.05-.61.05-1.45v-19.8q0-.82-.05-1.43t-.23-1.3q-.19-.68-.51-1.11-.33-.42-.92-.7-.6-.29-1.42-.29-.83 0-1.41.29-.59.28-.91.69-.32.41-.5 1.12-.17.71-.21 1.29-.04.57-.04 1.44v19.8q0 .87.04 1.45.04.59.21 1.3.18.71.5 1.13.32.43.91.72Zm12.59 8.84-1.9 5.46q-1.84-.77-4.38-2.99t-4.06-4.56h-.84q-3.44 0-5.87-.91t-3.86-2.71q-1.43-1.81-2.07-4.25-.63-2.44-.63-5.75v-15.24q0-3.34.63-5.76.64-2.43 2.07-4.22 1.43-1.8 3.86-2.69 2.43-.9 5.87-.9 6.69 0 9.6 3.42 2.9 3.43 2.9 10.15v15.24q0 9.29-5.46 12.15 2.44 2.67 4.14 3.56Zm11.5-2.16q-2.61 0-4.01-1.92-1.39-1.92-1.39-4.93v-23.13h8.32v22.13q0 1.1.38 1.66.39.56 1.31.54.99-.03 2.36-.9v-23.43h8.32v29.48h-8.32v-2.71q-3.41 3.21-6.97 3.21Zm37.77-2.47q-2.76 2.49-7.59 2.49t-7.54-2.49q-2.72-2.49-2.72-7.19v-11.14q0-4.73 2.72-7.2 2.71-2.48 7.54-2.48t7.59 2.49q2.75 2.49 2.75 7.19v11.14q0 4.7-2.75 7.19Zm-7.59-3.09q1.2 0 1.66-.88.46-.88.46-2.65V118.5q0-1.79-.46-2.68-.46-.88-1.66-.88-1.14 0-1.6.91-.46.91-.46 2.65v12.28q0 1.72.46 2.63.46.9 1.6.9Zm23.31 5.41q-1.37-.05-2.48-.39-1.1-.33-1.88-.86-.77-.52-1.34-1.32-.57-.79-.91-1.64-.34-.85-.53-1.97-.2-1.12-.28-2.15-.07-1.03-.07-2.33v-13.75h-2.82v-5.42h2.82v-8.94h8.39v8.94h4.23v5.42h-4.23v15.24q0 2.32 2.66 2.4.33.02.74 0 .41-.03.67-.07.26-.03.52-.08t.29-.05v6.55q-2.67.44-4.93.44-.42 0-.85-.02Zm18.06-34.79h-8.37v-5.85h8.37v5.85Zm0 34.44h-8.32v-29.48h8.32v29.48Zm15.19-4.83q.87 0 2.16-.72v-18.56q-1.09-.64-2.11-.64-1.1 0-1.62.88-.53.89-.53 2.3v13.45q0 1.45.5 2.37.5.92 1.6.92Zm-3.59 5.35q-3.34 0-5.09-2.31-1.76-2.32-1.76-6.88v-11.97q0-4.21 1.76-6.78 1.75-2.56 5.09-2.56 3.06 0 5.75 2.31V98.08h8.32v41.29h-8.32v-2.24q-2.81 2.74-5.75 2.76Zm27.64-34.96h-8.36v-5.85h8.36v5.85Zm0 34.44h-8.31v-29.48h8.31v29.48Zm14.27-5.2q.6 0 1.23-.42.64-.41 1.04-.98v-8.07q-1.99 1-3.28 2.8-1.28 1.81-1.28 3.53 0 1.44.65 2.29.65.85 1.64.85Zm-3.01 5.72q-3.14-.05-4.99-2.23-1.86-2.17-1.86-4.96 0-1.45.36-2.71.36-1.25.87-2.17.51-.93 1.43-1.8.93-.87 1.67-1.4.75-.54 1.98-1.15 1.24-.61 1.98-.91.75-.3 2.03-.78 1.28-.49 1.81-.71v-2.92q0-1.24-.38-1.91-.37-.68-1.37-.68-1.69 0-1.79 2.34l-.2 2.17-7.77-.3q0-.07.03-.5.02-.42.02-.47.38-4.83 3-7.12 2.63-2.29 7.51-2.29 4.36 0 6.64 2.41 2.28 2.42 2.28 6.45v13.72q0 2.84.52 7.4h-7.4q-.64-3.59-.69-4.18-.6 2.01-2.05 3.36-1.44 1.34-3.63 1.34Zm26.54-.52h-8.31v-29.48h8.31v2.93q3.52-3.43 7.15-3.43 2.62 0 4.01 1.92 1.39 1.91 1.39 4.93v23.13h-8.31v-21.89q0-1.12-.35-1.66-.35-.53-1.3-.51-1.04 0-2.59 1.03v23.03Zm34.83-1.97q-2.75 2.49-7.58 2.49t-7.55-2.49q-2.71-2.49-2.71-7.19v-11.14q0-4.73 2.71-7.2 2.72-2.48 7.55-2.48t7.58 2.49q2.75 2.49 2.75 7.19v11.14q0 4.7-2.75 7.19Zm-7.58-3.09q1.19 0 1.65-.88.46-.88.46-2.65V118.5q0-1.79-.46-2.68-.46-.88-1.65-.88-1.15 0-1.61.91-.46.91-.46 2.65v12.28q0 1.72.46 2.63.46.9 1.61.9Z"/></svg>